<svg width="53" height="44" viewBox="0 0 53 44" fill="none" xmlns="http://www.w3.org/2000/svg">
<path d="M29.1582 42.1199C28.8744 41.6745 28.6828 41.1785 28.5944 40.6604C28.506 40.1423 28.5225 39.6122 28.6429 39.1004C28.7632 38.5885 28.9852 38.1049 29.2961 37.6772C29.6069 37.2495 30.0006 36.8861 30.4546 36.6077C35.4166 33.5752 39.3586 29.176 41.7885 23.9592C39.3346 24.1605 36.876 23.6305 34.7342 22.4383C32.5924 21.2462 30.8673 19.4475 29.7845 17.2775C28.7017 15.1076 28.3116 12.6676 28.6653 10.2766C29.0191 7.88558 30.1001 5.65503 31.767 3.87675C33.434 2.09847 35.6091 0.85528 38.008 0.309828C40.4068 -0.235627 42.9176 -0.0579423 45.2118 0.81964C47.5061 1.69722 49.4769 3.23383 50.8665 5.22842C52.256 7.22301 52.9996 9.58269 53 11.9987L53 12.1067C52.9956 12.4164 52.982 12.7259 52.9592 13.0348C52.9225 13.6348 52.8492 14.4748 52.7065 15.5069C52.4211 17.559 51.8625 20.3871 50.7332 23.5632C48.4828 29.9234 43.9248 37.7837 34.7762 43.392C34.3221 43.6704 33.8167 43.8583 33.2887 43.9451C32.7606 44.0318 32.2203 44.0157 31.6987 43.8976C31.177 43.7794 30.6841 43.5617 30.2482 43.2566C29.8123 42.9516 29.4419 42.5654 29.1582 42.1199ZM0.619702 42.1199C0.335945 41.6745 0.14439 41.1785 0.0559733 40.6604C-0.0324398 40.1423 -0.0159832 39.6122 0.104405 39.1004C0.224789 38.5885 0.446755 38.1049 0.757615 37.6772C1.06848 37.2495 1.46215 36.8861 1.91617 36.6077C6.87819 33.5752 10.8201 29.176 13.25 23.9592C10.7962 24.1605 8.33752 23.6305 6.19575 22.4383C4.05398 21.2462 2.32883 19.4475 1.24601 17.2775C0.163195 15.1076 -0.226865 12.6676 0.126868 10.2766C0.480598 7.88558 1.56165 5.65503 3.22858 3.87675C4.89551 2.09847 7.07068 0.855278 9.46952 0.309826C11.8684 -0.23563 14.3791 -0.0579448 16.6734 0.819638C18.9676 1.69722 20.9384 3.23383 22.328 5.22841C23.7176 7.223 24.4612 9.58268 24.4615 11.9987L24.4615 12.1067C24.4571 12.4164 24.4435 12.7259 24.4208 13.0348C24.3841 13.6348 24.3107 14.4748 24.168 15.5069C23.8826 17.5589 23.3241 20.3871 22.1948 23.5632C19.9443 29.9234 15.3863 37.7837 6.2377 43.392C5.78369 43.6704 5.27823 43.8583 4.75019 43.9451C4.22216 44.0318 3.68187 44.0157 3.16019 43.8976C2.63852 43.7794 2.14566 43.5617 1.70976 43.2566C1.27386 42.9516 0.903458 42.5654 0.619702 42.1199Z" fill="#E9F3FA"/>
</svg>
