<svg width="53" height="44" viewBox="0 0 53 44" fill="none" xmlns="http://www.w3.org/2000/svg">
<path d="M23.8418 1.88008C24.1256 2.32555 24.3172 2.82148 24.4056 3.33958C24.494 3.85768 24.4775 4.38779 24.3571 4.89964C24.2368 5.4115 24.0148 5.89508 23.7039 6.32277C23.3931 6.75046 22.9994 7.11389 22.5454 7.3923C17.5834 10.4248 13.6414 14.824 11.2115 20.0408C13.6654 19.8395 16.124 20.3695 18.2658 21.5617C20.4076 22.7538 22.1327 24.5525 23.2155 26.7225C24.2984 28.8924 24.6884 31.3324 24.3347 33.7234C23.9809 36.1144 22.8999 38.345 21.233 40.1232C19.566 41.9015 17.3909 43.1447 14.992 43.6902C12.5932 44.2356 10.0824 44.0579 7.78818 43.1804C5.49395 42.3028 3.52312 40.7662 2.13355 38.7716C0.743969 36.777 0.000356895 34.4173 0 32.0013V31.8933C0.00443328 31.5836 0.0180287 31.2741 0.0407692 30.9652C0.0774615 30.3652 0.150846 29.5252 0.293539 28.4931C0.578923 26.441 1.13746 23.6129 2.26677 20.4368C4.51723 14.0766 9.07523 6.21625 18.2238 0.608034C18.6779 0.32962 19.1833 0.141673 19.7113 0.0549225C20.2394 -0.0318278 20.7797 -0.0156815 21.3013 0.102439C21.823 0.22056 22.3159 0.438342 22.7518 0.743351C23.1877 1.04836 23.5581 1.43462 23.8418 1.88008ZM52.3803 1.88008C52.6641 2.32555 52.8556 2.82148 52.944 3.33958C53.0324 3.85768 53.016 4.38779 52.8956 4.89964C52.7752 5.4115 52.5532 5.89508 52.2424 6.32277C51.9315 6.75046 51.5378 7.11389 51.0838 7.3923C46.1218 10.4248 42.1799 14.824 39.75 20.0408C42.2038 19.8395 44.6625 20.3695 46.8043 21.5617C48.946 22.7538 50.6712 24.5525 51.754 26.7225C52.8368 28.8924 53.2269 31.3324 52.8731 33.7234C52.5194 36.1144 51.4384 38.345 49.7714 40.1232C48.1045 41.9015 45.9293 43.1447 43.5305 43.6902C41.1316 44.2356 38.6209 44.0579 36.3266 43.1804C34.0324 42.3028 32.0616 40.7662 30.672 38.7716C29.2824 36.777 28.5388 34.4173 28.5385 32.0013V31.8933C28.5429 31.5836 28.5565 31.2741 28.5792 30.9652C28.6159 30.3652 28.6893 29.5252 28.832 28.4931C29.1174 26.441 29.6759 23.6129 30.8052 20.4368C33.0557 14.0766 37.6137 6.21625 46.7623 0.608034C47.2163 0.32962 47.7218 0.141673 48.2498 0.0549225C48.7778 -0.0318278 49.3181 -0.0156815 49.8398 0.102439C50.3615 0.22056 50.8543 0.438342 51.2902 0.743351C51.7261 1.04836 52.0965 1.43462 52.3803 1.88008Z" fill="#E9F3FA"/>
</svg>
