<svg width="18" height="20" viewBox="0 0 18 20" fill="none" xmlns="http://www.w3.org/2000/svg">
<path fill-rule="evenodd" clip-rule="evenodd" d="M7.91073 1.74112e-08C6.73631 0.000104903 5.57895 0.294625 4.5352 0.858989C3.49144 1.42335 2.59157 2.24119 1.91065 3.24428C1.22973 4.24737 0.787513 5.40661 0.62089 6.62529C0.454267 7.84398 0.568071 9.08676 0.952807 10.25C1.33754 11.4132 1.98206 12.463 2.83257 13.312C3.68309 14.161 4.71494 14.7845 5.84205 15.1304C6.96916 15.4763 8.15883 15.5346 9.31182 15.3005C10.4648 15.0664 11.5477 14.5466 12.4701 13.7846L15.6344 17.1018C15.7978 17.2672 16.0167 17.3588 16.2439 17.3567C16.4711 17.3546 16.6884 17.2591 16.849 17.0907C17.0097 16.9223 17.1008 16.6945 17.1028 16.4563C17.1048 16.2182 17.0174 15.9887 16.8596 15.8174L13.6953 12.5002C14.5513 11.3618 15.0843 9.99365 15.2333 8.55245C15.3823 7.11125 15.1412 5.65519 14.5377 4.35092C13.9341 3.04664 12.9925 1.94684 11.8205 1.17739C10.6485 0.40793 9.29358 -9.732e-05 7.91073 1.74112e-08ZM2.27869 7.72068C2.27869 6.15483 2.87207 4.65311 3.92828 3.54589C4.98449 2.43866 6.41702 1.81663 7.91073 1.81663C9.40444 1.81663 10.837 2.43866 11.8932 3.54589C12.9494 4.65311 13.5428 6.15483 13.5428 7.72068C13.5428 9.28654 12.9494 10.7883 11.8932 11.8955C10.837 13.0027 9.40444 13.6247 7.91073 13.6247C6.41702 13.6247 4.98449 13.0027 3.92828 11.8955C2.87207 10.7883 2.27869 9.28654 2.27869 7.72068Z" fill="white"/>
</svg>
