<svg width="318" height="66" viewBox="0 0 318 66" fill="none" xmlns="http://www.w3.org/2000/svg">
<g filter="url(#filter0_d_680_214)">
<mask id="path-1-inside-1_680_214" fill="white">
<path fill-rule="evenodd" clip-rule="evenodd" d="M32.1578 10C19.9204 10 10 19.9204 10 32.1578C10 44.3951 19.9203 54.3155 32.1577 54.3155H285.842C286.482 54.3155 287.115 54.2884 287.74 54.2354L303.966 55.3448C307.272 55.5709 308.027 50.7445 305.122 47.9482L303.125 46.0251C306.175 42.2288 308 37.4064 308 32.1578C308 19.9204 298.08 10 285.842 10H32.1578Z"/>
</mask>
<path fill-rule="evenodd" clip-rule="evenodd" d="M32.1578 10C19.9204 10 10 19.9204 10 32.1578C10 44.3951 19.9203 54.3155 32.1577 54.3155H285.842C286.482 54.3155 287.115 54.2884 287.74 54.2354L303.966 55.3448C307.272 55.5709 308.027 50.7445 305.122 47.9482L303.125 46.0251C306.175 42.2288 308 37.4064 308 32.1578C308 19.9204 298.08 10 285.842 10H32.1578Z" fill="white"/>
<path d="M287.74 54.2354L287.945 51.2423L287.716 51.2267L287.487 51.2461L287.74 54.2354ZM303.966 55.3448L304.17 52.3518L304.17 52.3518L303.966 55.3448ZM305.122 47.9482L307.203 45.7871L307.203 45.7871L305.122 47.9482ZM303.125 46.0251L300.786 44.1462L299.069 46.284L301.044 48.1862L303.125 46.0251ZM13 32.1578C13 21.5772 21.5772 13 32.1578 13V7C18.2635 7 7 18.2635 7 32.1578H13ZM32.1577 51.3155C21.5772 51.3155 13 42.7383 13 32.1578H7C7 46.052 18.2635 57.3155 32.1577 57.3155V51.3155ZM285.842 51.3155H32.1577V57.3155H285.842V51.3155ZM287.487 51.2461C286.945 51.292 286.397 51.3155 285.842 51.3155V57.3155C286.566 57.3155 287.284 57.2848 287.994 57.2246L287.487 51.2461ZM304.17 52.3518L287.945 51.2423L287.536 57.2284L303.761 58.3378L304.17 52.3518ZM303.042 50.1092C303.798 50.8376 303.995 51.7673 303.909 52.3164C303.868 52.5779 303.794 52.5875 303.887 52.4995C304.033 52.3612 304.199 52.3538 304.17 52.3518L303.761 58.3378C305.385 58.4489 306.886 57.923 308.013 56.8558C309.086 55.8391 309.639 54.5097 309.837 53.2434C310.229 50.7367 309.351 47.8551 307.203 45.7871L303.042 50.1092ZM301.044 48.1862L303.042 50.1093L307.203 45.7871L305.206 43.864L301.044 48.1862ZM305 32.1578C305 36.6987 303.424 40.8633 300.786 44.1462L305.464 47.904C308.926 43.5944 311 38.1141 311 32.1578H305ZM285.842 13C296.423 13 305 21.5772 305 32.1578H311C311 18.2635 299.737 7 285.842 7V13ZM32.1578 13H285.842V7H32.1578V13Z" fill="#014A8F" mask="url(#path-1-inside-1_680_214)"/>
</g>
<defs>
<filter id="filter0_d_680_214" x="0" y="0" width="318" height="65.3525" filterUnits="userSpaceOnUse" color-interpolation-filters="sRGB">
<feFlood flood-opacity="0" result="BackgroundImageFix"/>
<feColorMatrix in="SourceAlpha" type="matrix" values="0 0 0 0 0 0 0 0 0 0 0 0 0 0 0 0 0 0 127 0" result="hardAlpha"/>
<feOffset/>
<feGaussianBlur stdDeviation="5"/>
<feComposite in2="hardAlpha" operator="out"/>
<feColorMatrix type="matrix" values="0 0 0 0 1 0 0 0 0 1 0 0 0 0 1 0 0 0 0.25 0"/>
<feBlend mode="normal" in2="BackgroundImageFix" result="effect1_dropShadow_680_214"/>
<feBlend mode="normal" in="SourceGraphic" in2="effect1_dropShadow_680_214" result="shape"/>
</filter>
</defs>
</svg>
