<svg width="15" height="18" viewBox="0 0 15 18" fill="none" xmlns="http://www.w3.org/2000/svg">
<path fill-rule="evenodd" clip-rule="evenodd" d="M6.632 0H8.07844C9.33724 0 10.3344 0 11.1145 0.128093C11.9171 0.260372 12.5671 0.538326 13.0801 1.16456C13.5923 1.79163 13.8197 2.58614 13.9279 3.56735C14.0327 4.52177 14.0327 5.73991 14.0327 7.2787V10.7213C14.0327 12.2601 14.0327 13.4791 13.9279 14.4327C13.8197 15.4139 13.5923 16.2084 13.0801 16.8354C12.5671 17.4617 11.9171 17.7396 11.1145 17.8719C10.3337 18 9.33724 18 8.07844 18H6.632C5.37321 18 4.37603 18 3.59597 17.8719C2.7933 17.7396 2.14336 17.4617 1.63039 16.8354C1.11811 16.2084 0.890729 15.4139 0.78252 14.4327C0.677734 13.4782 0.677734 12.2601 0.677734 10.7213V7.2787C0.677734 5.73991 0.677734 4.52093 0.78252 3.56735C0.890729 2.58614 1.11811 1.79163 1.63039 1.16456C2.14336 0.538326 2.7933 0.260372 3.59597 0.128093C4.37672 0 5.37321 0 6.632 0ZM3.73226 1.37302C3.04328 1.48605 2.64605 1.6987 2.35567 2.05284C2.06665 2.40698 1.89269 2.89256 1.80024 3.73479C1.70572 4.59544 1.70436 5.72902 1.70436 7.32558V10.6744C1.70436 12.271 1.70572 13.4054 1.80024 14.266C1.89269 15.1074 2.06665 15.593 2.35635 15.9472C2.64605 16.3013 3.04328 16.514 3.73226 16.627C4.4363 16.7425 5.36362 16.7442 6.66967 16.7442H8.03941C9.34546 16.7442 10.2735 16.7425 10.9775 16.627C11.6658 16.514 12.063 16.3013 12.3527 15.9472C12.6424 15.593 12.8164 15.1074 12.9088 14.2652C13.0033 13.4054 13.0047 12.271 13.0047 10.6744V7.32558C13.0047 5.72902 13.0033 4.59544 12.9088 3.73395C12.8164 2.89256 12.6424 2.40698 12.3527 2.05284C12.063 1.6987 11.6658 1.48605 10.9768 1.37302C10.2735 1.25749 9.34546 1.25581 8.03941 1.25581H6.66967C5.36362 1.25581 4.43699 1.25749 3.73226 1.37302ZM4.10209 5.65116C4.10209 5.48463 4.1562 5.32492 4.25253 5.20717C4.34886 5.08941 4.47951 5.02326 4.61574 5.02326H10.0947C10.2309 5.02326 10.3616 5.08941 10.4579 5.20717C10.5542 5.32492 10.6084 5.48463 10.6084 5.65116C10.6084 5.81769 10.5542 5.9774 10.4579 6.09516C10.3616 6.21291 10.2309 6.27907 10.0947 6.27907H4.61574C4.47951 6.27907 4.34886 6.21291 4.25253 6.09516C4.1562 5.9774 4.10209 5.81769 4.10209 5.65116ZM4.10209 9C4.10209 8.83347 4.1562 8.67376 4.25253 8.556C4.34886 8.43825 4.47951 8.37209 4.61574 8.37209H10.0947C10.2309 8.37209 10.3616 8.43825 10.4579 8.556C10.5542 8.67376 10.6084 8.83347 10.6084 9C10.6084 9.16653 10.5542 9.32624 10.4579 9.444C10.3616 9.56175 10.2309 9.62791 10.0947 9.62791H4.61574C4.47951 9.62791 4.34886 9.56175 4.25253 9.444C4.1562 9.32624 4.10209 9.16653 4.10209 9ZM4.10209 12.3488C4.10209 12.1823 4.1562 12.0226 4.25253 11.9048C4.34886 11.7871 4.47951 11.7209 4.61574 11.7209H8.04009C8.17632 11.7209 8.30697 11.7871 8.4033 11.9048C8.49963 12.0226 8.55374 12.1823 8.55374 12.3488C8.55374 12.5154 8.49963 12.6751 8.4033 12.7928C8.30697 12.9106 8.17632 12.9767 8.04009 12.9767H4.61574C4.47951 12.9767 4.34886 12.9106 4.25253 12.7928C4.1562 12.6751 4.10209 12.5154 4.10209 12.3488Z" fill="white"/>
</svg>
